<?xml version="1.0" encoding="UTF-8"?>
<svg id="_レイヤー_2" data-name="レイヤー 2" xmlns="http://www.w3.org/2000/svg" viewBox="0 0 64.0226 63.7685">
  <defs>
    <style>
      .cls-1 {
        fill: #e60046;
        stroke-width: 0px;
      }
    </style>
  </defs>
  <g id="_スクロール要素" data-name="スクロール要素">
    <g>
      <g>
        <path class="cls-1" d="M57.0367,25.1103c3.7051-.0427,6.7433,2.9264,6.7858,6.6315.0076.6602-.0821.0821-.2529.6868-.2869.1937-.6335.3787-1.0345.5495-1.4262.6073-3.3378.9546-5.3829.9782-2.8932.0333-5.2117-.5831-6.4524-1.3849-.1836-.599-.2874-.0168-.2949-.6751-.0426-3.7051,2.9265-6.7434,6.6317-6.786Z"/>
        <path class="cls-1" d="M57.1631,36.1126c2.165-.0249,4.2036-.399,5.7402-1.0532.0387-.0165.0748-.0338.1127-.0506-1.122,2.0715-3.3024,3.49-5.8252,3.519-2.5228.029-4.7353-1.3389-5.9046-3.3841.0383.0159.0748.0324.1139.048,1.5513.6187,3.5979.9457,5.763.9208Z"/>
        <path class="cls-1" d="M58.5215,57.4286c-.3586.0546-.7253.0849-1.0984.0892-.3731.0043-.7404-.0176-1.1002-.0639-.9753-.1255-1.7244-.9254-1.7828-1.9071l-.0242-.4069c.9065.2247,1.8761.3427,2.8836.3311,1.0076-.0116,1.9741-.1523,2.8753-.3979l-.0148.4078c-.0358.9827-.7663,1.7997-1.7385,1.9476Z"/>
        <path class="cls-1" d="M55.4417,63.3014c-1.6019,0-3.3207-1.0947-4.6504-3.0166-.6647-1.001-1.3558-1.5264-2.0643-1.5752-.7225-.0381-1.5928.4336-2.3776,1.3252-.333.3779-.9097.415-1.2877.0811-.3782-.333-.4147-.9092-.0817-1.2881,1.1796-1.3389,2.5526-2.0176,3.8712-1.9385,1.3051.0898,2.4656.8877,3.4506,2.3711,1.0739,1.5527,2.4929,2.4316,3.52,2.1699.3652-.0918.8461-.3916,1.0719-1.3018.1212-.4893.6162-.792,1.1051-.666.4891.1211.7872.6162.6659,1.1055-.4845,1.9541-1.8375,2.4912-2.3969,2.6318-.2699.0684-.5464.1016-.8262.1016Z"/>
        <path class="cls-1" d="M60.9147,39.9404l-.612,13.1515c-.9034.2667-1.8844.4199-2.9116.4317-1.0272.0118-2.0114-.1187-2.9207-.3646l-.9979-13.133c1.1152.5821,2.3858.9057,3.7318.8902,1.346-.0155,2.6088-.3682,3.7104-.9759Z"/>
      </g>
      <g>
        <polygon class="cls-1" points="50.2414 7.2341 47.4967 4.4894 45.5903 6.3957 48.6019 9.4074 46.5813 12.0953 51.9182 17.4324 54.5964 15.4021 57.5604 18.3661 59.4667 16.4597 56.7601 13.753 58.9046 12.1231 62.1163 15.3349 64.0226 13.4285 61.0778 10.4835 62.8602 9.1206 54.8547 1.1149 53.5013 2.9068 50.5945 0 48.6882 1.9064 51.8618 5.0801 50.2414 7.2341"/>
        <polygon class="cls-1" points="33.9893 34.3513 49.6975 18.0712 45.9521 14.3257 29.6723 30.0339 33.9893 34.3513"/>
        <path class="cls-1" d="M27.499,60.3402c.2738-.2899.5274-.5952.752-.921.948-1.253,2.3373-3.4531,2.5469-5.8053.1568-1.7609-.2916-4.7038.0891-6.3791.0279-.1233.06-.2456.0944-.3662.4002-1.4009.6017-1.893,1.8038-2.7064,1.1993-.8115,3.3994-1.8037,4.5869-2.6329.5768-.4028,1.0643-.9787,1.2141-1.6661s-.1027-1.4842-.7058-1.8463c-.6681-.4012-1.5164-.215-2.2939-.2682-1.3082-.0896-2.3623-1.3137-5.3411-4.2924-2.9788-2.9788-3.5786-3.2678-3.8164-4.5067-.1648-.8585.166-2.0858.8221-2.6895.6153-.5662,1.1428-.9777,1.2331-1.8732.0684-.6791-.3986-1.1711-1.2487-1.5124-1.1911-.4782-4.6773-.4301-6.0756,3.502l-.5904,2.4252c-.5429,2.2283-1.4669,3.3493-3.6705,3.9842-.1206.035-.2429.0665-.3659.0944-1.675.381-4.6312-.1743-6.3786.0891-2.6164.3944-4.5528,1.5993-5.8055,2.5473-.3261.2248-.6314.4779-.9212.752-.1004.0897-.155.1414-.155.1414-5.2251,5.2259-4.0699,14.8538,2.5808,21.5046,6.6507,6.6509,16.2783,7.8065,21.5041,2.5806,0,0,.0517-.0543.1414-.155ZM20.0461,49.743l-6.0211-6.0213c-.2375-.2375-.2375-.6227,0-.8602s.6226-.2375.8602,0l6.0211,6.0213c.2375.2375.2375.6227,0,.8602s-.6226.2375-.8602,0ZM24.777,45.8722c-.475.475-1.2452.4751-1.7203,0l-5.161-5.1611c-.4751-.4751-.475-1.2453,0-1.7203l1.7203-1.7204c.4751-.4751,1.2452-.4751,1.7203,0l5.161,5.1611c.4751.4751.4751,1.2453,0,1.7203l-1.7203,1.7204ZM17.0355,58.7749c-.4751-.4751-.475-1.2453,0-1.7204.4751-.4751,1.2452-.4751,1.7203,0,.4751.4751.4751,1.2453,0,1.7204s-1.2452.4751-1.7203,0ZM20.4762,55.3341c-.4751-.4751-.475-1.2453,0-1.7204.4751-.4751,1.2452-.4751,1.7203,0,.4751.4751.4751,1.2453,0,1.7204-.475.475-1.2452.4751-1.7203,0Z"/>
      </g>
    </g>
  </g>
</svg>