<?xml version="1.0" encoding="UTF-8"?><svg id="_レイヤー_2" xmlns="http://www.w3.org/2000/svg" viewBox="0 0 63.85 63.6"><g id="_スクロール要素"><polygon points="50.11 7.21 47.37 4.48 45.47 6.38 48.47 9.38 46.46 12.06 51.78 17.39 54.45 15.36 57.41 18.32 59.31 16.41 56.61 13.72 58.75 12.09 61.95 15.29 63.85 13.39 60.91 10.46 62.69 9.1 54.71 1.11 53.36 2.9 50.46 0 48.56 1.9 51.72 5.07 50.11 7.21" fill="#ff6496" stroke-width="0"/><polygon points="33.9 34.26 49.56 18.02 45.83 14.29 29.59 29.95 33.9 34.26" fill="#ff6496" stroke-width="0"/><path d="M27.43,60.18c.27-.29.53-.59.75-.92.95-1.25,2.33-3.44,2.54-5.79.16-1.76-.29-4.69.09-6.36.03-.12.06-.24.09-.37.63-2.2,2.47-3.84,4.69-4.38l2.44-.59c.6-.15,1.17-.39,1.66-.76.75-.57,1.62-1.41,1.07-2.43-.5-.93-1.3-.7-2.09-.5-.75.2-1.71.1-2.32-.4-.78-.64-.87-1.72-.81-2.68l-1.92,1.82-6.82-6.77,6.68-6.17c-3.83-2.47-8.5-2.77-10.72-.16-.46.54-.76,1.19-.93,1.88l-.59,2.42c-.54,2.22-2.18,4.06-4.38,4.69-.12.03-.24.07-.36.09-1.67.38-4.62-.17-6.36.09-2.61.39-4.54,1.59-5.79,2.54-.33.22-.63.48-.92.75-.1.09-.15.14-.15.14-5.21,5.21-4.06,14.81,2.57,21.45,6.63,6.63,16.23,7.79,21.45,2.57,0,0,.05-.05.14-.15ZM18.28,51.32l-6-6c-.24-.24-.24-.62,0-.86s.62-.24.86,0l6,6c.24.24.24.62,0,.86s-.62.24-.86,0ZM23.85,46.61c-.47.47-1.24.47-1.72,0l-5.15-5.15c-.47-.47-.47-1.24,0-1.72l1.72-1.72c.47-.47,1.24-.47,1.72,0l5.15,5.15c.47.47.47,1.24,0,1.72l-1.72,1.72ZM29.12,41.27c-.47.47-1.24.47-1.72,0l-5.15-5.15c-.47-.47-.47-1.24,0-1.72l1.72-1.72c.47-.47,1.24-.47,1.72,0l5.15,5.15c.47.47.47,1.24,0,1.72l-1.72,1.72ZM19.56,54.33c-.47-.47-.47-1.24,0-1.72s1.24-.47,1.72,0,.47,1.24,0,1.72-1.24.47-1.72,0ZM17.85,59.47c-.47-.47-.47-1.24,0-1.72.47-.47,1.24-.47,1.72,0,.47.47.47,1.24,0,1.72s-1.24.47-1.72,0ZM24.71,54.33c-.47-.47-.47-1.24,0-1.72.47-.47,1.24-.47,1.72,0,.47.47.47,1.24,0,1.72-.47.47-1.24.47-1.72,0ZM22.99,59.47c-.47-.47-.47-1.24,0-1.72.47-.47,1.24-.47,1.72,0,.47.47.47,1.24,0,1.72-.47.47-1.24.47-1.72,0Z" fill="#ff6496" stroke-width="0"/></g></svg>