<?xml version="1.0" encoding="UTF-8"?><svg id="_レイヤー_2" xmlns="http://www.w3.org/2000/svg" viewBox="0 0 47.7 47.7"><g id="_スクロール要素"><path d="M13.97.17c-2.54.12-4.27.53-5.79,1.12-1.57.61-2.9,1.43-4.22,2.76-1.32,1.33-2.14,2.66-2.74,4.23-.59,1.52-.99,3.25-1.1,5.79C.02,16.61,0,17.42,0,23.9c.01,6.48.04,7.29.16,9.83.12,2.54.53,4.27,1.12,5.78.61,1.57,1.43,2.9,2.76,4.22,1.33,1.32,2.66,2.14,4.23,2.74,1.52.59,3.25.99,5.79,1.1,2.54.11,3.36.14,9.83.12,6.48-.01,7.29-.04,9.83-.16,2.54-.12,4.27-.53,5.79-1.12,1.57-.61,2.9-1.43,4.22-2.76,1.32-1.33,2.14-2.66,2.74-4.23.59-1.52.99-3.25,1.1-5.79.11-2.55.14-3.36.13-9.83-.01-6.48-.04-7.29-.16-9.83-.12-2.54-.53-4.27-1.12-5.79-.61-1.57-1.43-2.9-2.76-4.22-1.33-1.32-2.66-2.14-4.23-2.74-1.52-.59-3.25-.99-5.79-1.1C31.09.02,30.28,0,23.8,0c-6.48.01-7.29.04-9.83.16M14.25,43.28c-2.33-.1-3.59-.49-4.43-.81-1.11-.43-1.91-.95-2.75-1.78-.84-.83-1.35-1.63-1.79-2.74-.33-.84-.72-2.1-.83-4.43-.12-2.51-.15-3.27-.16-9.64-.01-6.37.01-7.12.12-9.64.1-2.32.49-3.59.81-4.43.43-1.12.95-1.91,1.78-2.75.83-.84,1.63-1.35,2.74-1.79.84-.33,2.1-.72,4.43-.83,2.52-.12,3.27-.14,9.64-.16,6.37-.01,7.12.01,9.64.12,2.32.1,3.59.49,4.43.81,1.12.43,1.91.95,2.75,1.78.84.83,1.35,1.63,1.79,2.74.33.84.72,2.1.83,4.42.12,2.52.15,3.27.16,9.64.01,6.37-.01,7.12-.12,9.64-.1,2.33-.49,3.59-.81,4.43-.43,1.11-.95,1.91-1.78,2.75-.83.83-1.63,1.35-2.74,1.79-.84.33-2.1.72-4.42.83-2.52.12-3.27.15-9.64.16-6.37.01-7.12-.01-9.64-.12M33.69,11.1c0,1.58,1.29,2.86,2.87,2.86,1.58,0,2.86-1.29,2.86-2.87,0-1.58-1.29-2.86-2.87-2.86s-2.86,1.29-2.86,2.87M11.6,23.87c.01,6.76,5.51,12.23,12.27,12.22,6.76-.01,12.24-5.51,12.22-12.27-.01-6.76-5.51-12.24-12.27-12.22-6.76.01-12.23,5.51-12.22,12.27M15.9,23.86c0-4.39,3.55-7.96,7.93-7.96,4.39,0,7.96,3.54,7.97,7.93,0,4.39-3.54,7.96-7.94,7.96-4.39,0-7.96-3.54-7.96-7.93" fill="#000"/></g></svg>