<?xml version="1.0" encoding="UTF-8"?>
<svg id="_レイヤー_2" data-name="レイヤー_2" xmlns="http://www.w3.org/2000/svg" viewBox="0 0 66.74 65.25">
  <defs>
    <style>
      .cls-1 {
        fill: #006ebe;
      }
    </style>
  </defs>
  <g id="_スクロール要素" data-name="スクロール要素">
    <g>
      <path class="cls-1" d="M30.74,58.67c.57-2.78.88-6.27,2.77-8.54,1.24-1.49,3.45-2.78,4.23-3.18,1.11-.58,2.21-1.14,3.19-1.92.12-.09.23-.19.34-.29,1.52-1.32,3.34-4.01,2.18-6.08-.31-.54-.86-.94-1.48-1.05-1.06-.19-2.21.55-3.04,1.12-.59.41-1.19.82-1.88,1.03-.72.22-1.55.18-2.28,0-.23-.06-1.73-1.06-1.55-1.25l-6.25,6.44-6.69-6.69,9.86-9.65c-.92-1.06-1.88-1.73-1.95-3.28-.04-.93.28-1.88.89-2.59.72-.85,1.85-1.42,2.2-2.47.33-1-.21-2.16-1.1-2.73-.89-.57-2.04-.61-3.06-.32-3.12.87-4.79,3.6-6.19,6.3-3.34,6.4-2.88,8.56-14.37,10.97C3.67,35.12-.17,39.04,0,43.53c.18,4.5,5.35,10.05,8.54,13.2,3.13,2.72,8.69,8.34,13.18,8.53,4.49.17,8.42-3.65,9.02-6.58ZM16.16,54.15l-5.46-5.46,2.31-2.31,5.46,5.46-2.31,2.31ZM19.71,50.59l-5.46-5.46,2.31-2.31,5.46,5.46-2.31,2.31Z"/>
      <polygon class="cls-1" points="26.97 41.73 23.52 38.28 48.67 13.79 51.33 16.45 26.97 41.73"/>
      <path class="cls-1" d="M49.35,11.59s-1.38-1.39,0-2.56c0,0,12.45-8.49,12.48-8.51,3.95-2.11,6.29,2.77,4.01,5.19-.53.56-1.19.99-1.96,1.12s-1.39-.08-2.08.32c-.91.51-1.32,1.49-1.78,2.37-.38.79-3.26,5.86-3.26,5.86-.71,1.31-1.63,1.91-3.09.46"/>
    </g>
  </g>
</svg>