<?xml version="1.0" encoding="UTF-8"?><svg id="_レイヤー_2" xmlns="http://www.w3.org/2000/svg" viewBox="0 0 67.83 55.72"><g id="_スクロール要素"><path d="M19.33,53.88c-.35.57-.16,1.32.41,1.67.19.11.41.17.63.17.4,0,.8-.21,1.03-.58l2.17-3.57c-.69-.42-1.36-.88-1.99-1.39l-2.25,3.71Z" fill="#fabe00" stroke-width="0"/><path d="M46.27,50.13c-.62.51-1.28.97-1.97,1.41l2.4,3.63c.23.35.62.55,1.02.55.23,0,.46-.06.67-.19.56-.38.7-1.13.34-1.68l-2.45-3.71Z" fill="#fabe00" stroke-width="0"/><path d="M62.39,19.59l-5.21,1.5v-9.04h9.06c.68,0,1.21-.54,1.21-1.21s-.53-1.21-1.21-1.21h-9.06v-1.95h9.06c.68,0,1.21-.55,1.21-1.21s-.53-1.21-1.21-1.21h-9.06V1.21c0-.67-.55-1.21-1.21-1.21s-1.21.54-1.21,1.21v4.05h-9.06c-.68,0-1.21.53-1.21,1.21s.53,1.21,1.21,1.21h9.06v1.95h-9.06c-.68,0-1.21.55-1.21,1.21s.53,1.21,1.21,1.21h9.06v9.74l-5.23,1.51c2.46,3.26,3.94,7.3,3.94,11.7,0,2.17-.38,4.25-1.03,6.2l2.33-.67v13.97c0,.67.55,1.21,1.21,1.21s1.21-.55,1.21-1.21v-14.67l10.65-3.08-5.44-17.18Z" fill="#fabe00" stroke-width="0"/><path d="M18.29,23.3l-5.23-1.51v-9.74h9.07c.67,0,1.21-.54,1.21-1.21s-.55-1.21-1.21-1.21h-9.07v-1.95h9.07c.67,0,1.21-.55,1.21-1.21s-.55-1.21-1.21-1.21h-9.07V1.21c0-.67-.53-1.21-1.21-1.21s-1.21.54-1.21,1.21v4.05H1.57c-.67,0-1.21.53-1.21,1.21s.55,1.21,1.21,1.21h9.06v1.95H1.57c-.67,0-1.21.55-1.21,1.21s.55,1.21,1.21,1.21h9.06v9.04l-5.21-1.5L0,36.76l10.63,3.08v14.67c0,.67.55,1.21,1.21,1.21s1.21-.55,1.21-1.21v-13.97l2.33.67c-.65-1.95-1.02-4.03-1.02-6.2,0-4.4,1.47-8.44,3.92-11.7Z" fill="#fabe00" stroke-width="0"/><path d="M33.92,17.26c-9.8,0-17.74,7.96-17.74,17.73s7.95,17.73,17.74,17.73,17.73-7.96,17.73-17.73-7.96-17.73-17.73-17.73ZM33.92,48.37c-7.39,0-13.37-6-13.37-13.37s5.98-13.37,13.37-13.37,13.36,6,13.36,13.37-6,13.37-13.36,13.37Z" fill="#fabe00" stroke-width="0"/><path d="M45.46,34.99c0,6.37-5.17,11.56-11.54,11.56s-11.56-5.18-11.56-11.56,5.17-11.56,11.56-11.56,11.54,5.18,11.54,11.56Z" fill="#fabe00" stroke-width="0"/></g></svg>